<?xml version="1.0" encoding="UTF-8" standalone="no"?>
<!-- Created with Inkscape (http://www.inkscape.org/) -->

<svg
   version="1.1"
   id="svg2"
   width="13869.333"
   height="2650.6667"
   viewBox="0 0 13869.333 2650.6667"
   sodipodi:docname="shutterstock_1482163439.eps"
   xmlns:inkscape="http://www.inkscape.org/namespaces/inkscape"
   xmlns:sodipodi="http://sodipodi.sourceforge.net/DTD/sodipodi-0.dtd"
   xmlns="http://www.w3.org/2000/svg"
   xmlns:svg="http://www.w3.org/2000/svg">
  <defs
     id="defs6">
    <clipPath
       clipPathUnits="userSpaceOnUse"
       id="clipPath18">
      <path
         d="m 0,4.25 h 104020 v 19870 H 0 Z"
         id="path16" />
    </clipPath>
  </defs>
  <sodipodi:namedview
     id="namedview4"
     pagecolor="#ffffff"
     bordercolor="#000000"
     borderopacity="0.25"
     inkscape:showpageshadow="2"
     inkscape:pageopacity="0.0"
     inkscape:pagecheckerboard="0"
     inkscape:deskcolor="#d1d1d1" />
  <g
     id="g8"
     inkscape:groupmode="layer"
     inkscape:label="ink_ext_XXXXXX"
     transform="matrix(1.3333333,0,0,-1.3333333,0,2650.6667)">
    <g
       id="g10"
       transform="scale(0.1)">
      <g
         id="g12">
        <g
           id="g14"
           clip-path="url(#clipPath18)">
          <path
             d="m 52520,19874.3 -799,-6862.5 -124.2,1043.2 -44.3,-2441.3 h -106.8 L 51326,12861 51246,11631.5 V 9709.48 l 49,-84.49 V 7729.76 h -128.7 l -71.1,603.47 -30.9,-603.47 h -6560.8 v 208.47 h 80 v 1469.26 h -62.2 V 9048 H 44366 l -364,1247.3 -31,404 93,17.7 v 62.3 h -110.8 l -97.7,648 -97.8,-648 h -106.4 v -62.3 l 88.7,-17.7 -26.5,-404 L 43345,9048 h -151 v 359.49 h -62 v -976.48 l -4647.5,8.98 -377.2,-652.73 H 37579 L 37312.7,6793 V 5576.75 l -182,-306.25 V 1413.23 h -1518.2 v 1239.53 l 60.2,60.24 186.1,107.5 113.5,-30.51 h 151.2 v 2817.77 l 108.5,62.74 81.8,47.26 -238.1,137.5 -588.7,588.75 -330.2,-330.27 -56.3,210.27 v 335.47 l -184,49.53 -151.5,87.5 v 323.99 h -314.5 c -99.8,346.21 -205.1,689.65 -711,851.25 l -20.2,320.51 c -38.5,58.55 -102.7,141.05 -215,135 l -52.5,711.25 -74.8,-708.75 c -108.6,-42.15 -165.1,-96.57 -198.5,-157.5 l -30,-330.51 c -409,-168.09 -516.8,-442.03 -581,-731.25 l -60.2,-170.24 H 31686 v 620.98 l 100,130.27 -110,80.24 -40.3,450.74 c -89.8,190.2 -228.8,320.63 -450.7,350.51 l -50,1011.76 -80,-1001.76 c -224.5,-24.06 -348,-166.33 -461,-320.51 l -50,-430.74 -110.2,-110.24 70.2,-110.27 V 6494.25 l -960.2,8.24 v 537.77 h -332 v -541.01 h -340.5 l -404,-699.49 h -497.5 v 198.75 h -160.3 v 170.23 H 27639 v 140.27 h -200.2 l -56.1,755.98 -64.2,-765.98 h -187 v -124.53 h -170 V 6006.24 H 26788 v -238.98 l -264.8,-152.78 V 4465.73 L 26462,4359.76 V 1413.23 h -955 v 2233.28 h 311.2 v 218.48 l -690.5,894.02 H 24917 l -506.3,962 -378.9,-565 v 438.24 h -152 v -674.26 h -441.3 v 2748.52 h 109.2 v 75.23 h -270 l -868.9,708.24 v 245 l 85.5,66.25 v 186.02 l -135.8,67.73 -93,513.52 h -47 l -93,-513.52 -134.2,-67.73 v -186.02 l 83.9,-66.25 v -245 l -867.5,-708.24 h -270 v -75.23 H 21047 V 1766.98 l -93,-76.72 -13.3,-277.03 h -855.2 v 6038.28 l 84.5,98.48 v 834.77 l -74.8,194.49 V 9138 l 49.8,127.5 -286,1904 -268.5,-1230.25 -405.5,1971.05 h -420.2 l -102.1,418.2 134.3,12.7 17.5,154.8 -84.7,12.5 -84.6,2069.3 h -94.5 l -84.4,-2069.3 -84.5,-12.5 17.2,-154.8 134.5,-12.7 -99.5,-418.2 h -423 l -402.8,-1971.05 -271.2,1230.25 -283.5,-1904 47.2,-127.5 v -558.75 l -71.9,-194.49 v -834.77 l 81.9,-98.48 V 1413.23 H 15970 v 1937.03 l -77.7,44.73 v 2011.99 h 140 v 137.27 h -1670.5 v 261.76 l 125.7,33.75 L 10971.3,7888 7455,5839.76 7580.74,5806.01 V 5544.25 H 5910.23 v -137.27 h 140 V 3394.99 l -77.73,-44.73 V 1413.23 h -735.74 v 1503.01 h 232.22 L 5120.74,3238.51 4437.5,4363.74 3857.27,3300.26 3406.25,2920.73 h 214.26 v -1507.5 h -796.76 v 948.28 h 250.74 l -376.25,273.48 -738.01,955.27 -627.22,-902.77 -487.272,-322.23 H 1077.27 V 1413.23 L 0,1413.23 V 9.98828 H 104016 V 1413.23 h -1357 v 1029.53 h 415 l -621,251.25 -1219,877 -1036,-829.03 -805.3,-295.74 h 382.5 V 1413.23 h -987.7 v 1705.51 h 326.8 l -490,453.24 -961.3,1583.52 -816.7,-1496.49 -634.5,-534.02 h 301.4 V 1413.23 h -856.4 C 95221.9,2930.11 94614.4,4008.62 94404,5187.49 v 2416.25 c 121,696.72 214.5,1395.27 270,2092.5 l 300.5,1121.06 -943.5,165 -81.7,891.2 h -49.5 l -80,-891.2 -945.3,-165 243.5,-908.29 c 87.7,-814.64 197.9,-1552.89 327,-2234.25 V 6374.99 C 92989.1,4664.68 92438.2,3028.98 91864,1413.23 h -1008 v 788.52 l 405.3,428.51 23.2,110 57.8,17.5 v 376.25 l -72.1,41.72 V 4043 l 121.8,32.5 v 146.99 l -275.5,231.52 v 445.75 l -104.2,46.48 -173.8,2026.25 -225.8,-1881.48 -115.7,590.5 v 335.75 h -92.5 v 341.48 h -69.5 v 318.52 h -127.5 v -341.53 h -98.5 v -196.99 h -5196.7 v 196.99 h -98.5 v 341.53 h -127.3 v -318.52 h -69.5 v -341.48 h -92.7 v -335.75 l -115.8,-590.5 -225.8,1881.48 -173.7,-2026.25 -104.2,-46.48 v -445.75 l -275.3,-231.52 V 4075.5 l 121.8,-32.5 v -867.27 l -72.3,-41.72 v -376.25 l 58,-17.5 23,-110 405.2,-428.51 v -788.52 h -1236.7 v 2510 l -60,230 c 0,0 44.9,2560.75 29,2582.03 -15.9,21.25 -138.7,410.47 -138.7,410.47 l -89.3,1359.26 v 2360.31 h 163.7 v 89.2 l -163.7,45.5 -76.5,1817.5 -41.5,290 -68.5,-41.5 -64.2,-219.5 -748.1,1740.5 -28.9,688 105.7,74.8 c 0,0 6,108.6 6,138.7 0,30.1 8.6,45.7 -29,87 -37.6,41.3 -72.5,95.5 -72.5,95.5 l -10.2,296.3 c 0,0 111.7,92.6 111.7,107.7 0,15 30.6,38.6 -14.5,91.2 -45.1,52.7 -63.2,91 -93.3,109.8 -30,18.8 -45.5,29 -45.5,29 h -66.2 c 0,0 -15.4,-10.2 -45.5,-29 -30.1,-18.8 -48.1,-57.1 -93.3,-109.8 -45,-52.6 -14.7,-76.2 -14.7,-91.2 0,-15.1 112,-107.7 112,-107.7 l -10.2,-296.3 c 0,0 -35,-54.2 -72.5,-95.5 -37.6,-41.3 -29.3,-56.9 -29.3,-87 0,-30.1 6.3,-138.7 6.3,-138.7 l 105.7,-74.8 -29,-688 -748,-1740.5 -64.2,219.5 -68.6,41.5 -41.4,-290 -76.5,-1817.5 -163.8,-45.5 v -89.2 h 163.8 V 8504.99 l -89.3,-1359.26 c 0,0 -60.1,-191.79 -101.5,-312.97 l -24.7,948.99 H 79559 l -447.5,713.01 2,476.48 -74.5,83.01 -16.5,586.48 h -66.5 l -14.5,-586.48 -74.5,-83.01 2,-476.48 -447.5,-713.01 h -690 l -25,-948.99 c -41.4,121.18 -101.5,312.97 -101.5,312.97 l -89,1359.26 v 2360.31 h 163.5 v 89.2 l -163.5,45.5 -76.7,1817.5 -41.6,290 -68.2,-41.5 -64.3,-219.5 -748.2,1740.5 -29,688 105.8,74.8 c 0,0 6.2,108.6 6.2,138.7 0,30.1 8.6,45.7 -29,87 -37.6,41.3 -72.5,95.5 -72.5,95.5 l -10.5,296.3 c 0,0 112,92.6 112,107.7 0,15 30.6,38.6 -14.5,91.2 -45.1,52.7 -63.2,91 -93.2,109.8 -30.1,18.8 -45.8,29 -45.8,29 h -66.3 c 0,0 -15.4,-10.2 -45.4,-29 -30.1,-18.8 -48.2,-57.1 -93.3,-109.8 -45.1,-52.6 -16.7,-76.2 -16.7,-91.2 0,-15.1 114,-107.7 114,-107.7 l -12.3,-296.3 c 0,0 -32.9,-54.2 -70.5,-95.5 -37.6,-41.3 -31.2,-56.9 -31.2,-87 0,-30.1 8.4,-138.7 8.4,-138.7 l 105.6,-74.8 -31.1,-688 -747.9,-1740.5 -62.3,219.5 -68.2,41.5 -41.6,-290 -76.7,-1817.5 -163.7,-45.5 v -89.2 H 75311 V 8504.99 l -89,-1359.26 c 0,0 -123,-389.22 -139,-410.47 -15.9,-21.28 29,-2582.03 29,-2582.03 l -62,-230 V 2956.98 C 74329.4,3696.24 73103.7,4183 71712.5,4183 c -98.4,0 -195.8,-3.2 -292.5,-8.01 -16.2,8.36 -34.9,11.92 -53,10 -14.7,-1.87 -29,-7.34 -41.3,-15.74 -1064.1,-70.16 -2006.4,-425.51 -2664.2,-954.26 -865.4,858.87 -2307.8,1419.45 -3942,1419.49 h -0.2 c -1634.3,-0.04 -3076.7,-560.39 -3942,-1419.22 -736.5,592.04 -1829.4,967.74 -3051,967.74 -1491.5,0 -2792.2,-559.73 -3484.8,-1390 -0.3,-0.31 -1.7,0.31 -2,0 -2,-0.94 -4,-1.91 -6,-3.01 V 5173 l -102.2,101.99 v 1540.27 l -111.1,110.98 -75.2,1406.99 -124.3,-1042.97 -75.5,75.47 v 2259.26 l 48.8,84.49 v 1922.02 l -80,1229.5 -119.7,-1247.3 h -106.6 L 53443.2,14055 53319,13011.8 Z M 93445,5272.49 v -402.5 h -118.7 c 40.6,133.48 79.3,268.05 118.7,402.5 z m -172.7,-576.76 h 147.9 V 4341.01 C 93207.9,3366.32 92945,2397.37 92623.8,1413.23 H 92152 c 388.1,1083.09 774.9,2167.43 1120.3,3282.5 z M 64669,4382.26 c 93.1,0.23 186.5,-1.57 280,-4.77 L 63755.5,2331.75 62673.8,4053.51 c 611.7,208.71 1262.8,313 1902.2,327.73 30.9,0.59 62,0.94 93,1.02 z m 700.3,-30.28 c 708.8,-67.69 1413.6,-249.29 2045.7,-565.47 l -858,-1472.5 z m -218,-58.98 1278.2,-2193.01 h -2556.3 z m 29291.2,-323.52 c 288.2,-844.06 600.2,-1669.29 919.8,-2556.25 h -301 c -216.7,844.18 -427.1,1693.68 -618.8,2556.25 z M 62398.8,3953.23 61368,2309.99 l -398.5,683.24 c -7.6,12.35 -17.7,23.13 -29.5,31.53 421.1,406.56 920.2,711.44 1458.8,928.47 z m -4666.5,-13.75 c 14.3,0 28.6,0.12 42.9,0 l -1017,-1765 -881.4,1419.53 c 588.1,228.79 1221.5,344.93 1855.5,345.47 z m 13971.7,-9.49 c 135.4,0 270.5,-4.33 405.3,-13.98 451.9,-33.36 923.6,-121.02 1368.2,-276.76 L 72582.3,2201.98 71583,3927.76 c 21,0.32 41.8,1.65 62.7,2 19.4,0.15 38.9,0.23 58.3,0.23 z m -13553.8,-5.98 c 611.7,-48.55 1213.6,-205.97 1763,-473.28 l -743.9,-1290 z m 13012.5,-19.76 -991.2,-1719.77 -714.7,1236.76 c 529.1,268.48 1112.2,425.31 1705.9,483.01 z m 218,-1.99 1042.5,-1802.27 h -2085 z M 57960,3878.74 58986.8,2099.99 H 56933 Z m 4607.7,-65 1075.8,-1713.75 H 61491.8 Z M 67786,3580.26 c 313.1,-194.1 602.3,-426.67 858,-701.01 132.6,114.69 271.8,219.45 416.2,314.26 l -522.2,-905 z m -245.3,-11.75 854.1,-1468.52 h -1710 z m 6274.5,-62.78 c 427.3,-191.4 816.1,-455.5 1121.1,-802.97 L 74636,2182.49 Z m -212,-15.74 861.8,-1390 h -1723.7 z m -17867.7,-27.5 848.3,-1362.5 h -1694.5 z m -247.5,-39.26 -785.3,-1266.48 -270.7,469.26 c 156.5,189.18 340.9,356.17 541.8,500.74 165.1,110.12 336.4,208.59 514.2,296.48 z m 37932.2,-82.97 V 1611.75 h -372.9 V 1413.23 H 92907 c 164.9,631.41 339.7,1274.5 513.2,1927.03 z m -33214.5,-46.75 c 198.5,-115.28 388.2,-246.06 567.5,-392.5 2.1,-6.14 4.7,-12.07 7.8,-17.78 l 457.5,-783.24 H 60897 Z m 9119.5,-19.5 677.3,-1174.02 H 68648 Z m -9309.7,-25.5 663.5,-1148.52 h -1329 z m 34413.3,-494.03 c 95.6,-382.38 194.3,-762.38 293,-1142.73 h -293 z m -75829.5,-23.24 c 378.6,3.09 757.5,-189.06 757.5,-585.51 v -732.5 H 17842 v 732.5 c 0,384.14 378.6,582.43 757.3,585.51 z m 56450.7,-210 v -421.25 h -243.2 z m -20741.8,-56.25 210,-365 h -284.7 v 249.26 c 23.6,39.45 48.6,77.97 74.7,115.74 z m 512.3,-616.25 h 6109.72 V 1413.232 H 54820.5 Z m 6822.5,0 h 6109.49 V 1413.232 H 61643 Z m 6822.2,0 h 6109.77 V 1413.232 H 68465.2 Z"
             style="fill:#000000;fill-opacity:1;fill-rule:nonzero;stroke:none"
             id="path20" />
        </g>
      </g>
    </g>
  </g>
</svg>
