<?xml version="1.0" encoding="UTF-8" standalone="no"?>
<!-- Created with Inkscape (http://www.inkscape.org/) -->

<svg
   version="1.1"
   id="svg2"
   width="688"
   height="114.66667"
   viewBox="0 0 688 114.66667"
   sodipodi:docname="shutterstock_1307098285.eps"
   xmlns:inkscape="http://www.inkscape.org/namespaces/inkscape"
   xmlns:sodipodi="http://sodipodi.sourceforge.net/DTD/sodipodi-0.dtd"
   xmlns="http://www.w3.org/2000/svg"
   xmlns:svg="http://www.w3.org/2000/svg">
  <defs
     id="defs6">
    <clipPath
       clipPathUnits="userSpaceOnUse"
       id="clipPath18">
      <path
         d="m 0,4.35938 h 5160 v 850 H 0 Z"
         id="path16" />
    </clipPath>
  </defs>
  <sodipodi:namedview
     id="namedview4"
     pagecolor="#ffffff"
     bordercolor="#000000"
     borderopacity="0.25"
     inkscape:showpageshadow="2"
     inkscape:pageopacity="0.0"
     inkscape:pagecheckerboard="0"
     inkscape:deskcolor="#d1d1d1" />
  <g
     id="g8"
     inkscape:groupmode="layer"
     inkscape:label="ink_ext_XXXXXX"
     transform="matrix(1.3333333,0,0,-1.3333333,0,114.66667)">
    <g
       id="g10"
       transform="scale(0.1)">
      <g
         id="g12">
        <g
           id="g14"
           clip-path="url(#clipPath18)">
          <path
             d="m 1058.67,576.27 -0.23,-58.981 -11.06,-16.48 -5.39,-12.899 v -47.73 c 0,0 -2.58,-11.289 -2.58,-12.7 0,-1.402 -16.01,-10.109 -16.01,-10.109 0,0 1.68,-43.48 1.68,-44.652 0,-1.168 -2.15,-10.821 -2.38,-12.457 -0.24,-1.641 -4.22,-5.633 -4.22,-6.563 0,-0.937 0.47,-15.508 0.47,-15.508 H 980.391 V 355.34 H 963.012 V 336.512 L 923.52,317.48 h -20.2 l 8.668,-10.82 -19.019,-27.031 6.801,-6.789 v -11.762 h -41.372 v 16.684 H 844.77 v -18.09 l -40.899,-14.57 -13.402,-0.473 V 238.5 l 4.961,-3.52 -17.539,-23.121 5.937,-3.437 v -22.383 l 1.992,-3.48 V 69.0117 l 2.231,-1.25 V 45.4883 l 2.379,-1.3594 c 0,0 0.16,-27.4297 0,-28.0898 h 539.14 c -0.16,0.6601 0,28.0898 0,28.0898 l 2.38,1.3594 v 22.2734 l 2.19,1.25 V 182.559 l 2.03,3.48 v 22.383 l 5.9,3.437 -17.5,23.121 4.92,3.52 v 6.129 l -13.4,0.473 -40.89,14.57 v 18.09 h -13.64 v -16.684 h -41.36 v 11.762 l 6.83,6.789 -19.06,27.031 8.71,10.82 h -20.23 l -39.5,19.032 v 18.828 h -17.38 v -17.149 h -38.55 c 0,0 0.46,14.571 0.46,15.508 0,0.93 -3.98,4.922 -4.21,6.563 -0.24,1.636 -2.35,11.289 -2.35,12.457 0,1.172 1.64,44.652 1.64,44.652 0,0 -15.97,8.707 -15.97,10.109 0,1.411 -2.58,12.7 -2.58,12.7 v 47.73 l -5.43,12.899 -11.06,16.48 -0.23,58.981 z"
             style="fill:#000000;fill-opacity:1;fill-rule:nonzero;stroke:none"
             id="path20" />
          <path
             d="m 816.211,74.75 c 0.777,24.1797 38.949,25 39.449,0 V 23.5391 h -39.449 z"
             style="fill:#ffffff;fill-opacity:1;fill-rule:evenodd;stroke:none"
             id="path22" />
          <path
             d="m 880.23,74.75 c 0.79,24.1797 38.95,25 39.461,0 V 23.5391 H 880.23 Z"
             style="fill:#ffffff;fill-opacity:1;fill-rule:evenodd;stroke:none"
             id="path24" />
          <path
             d="m 944.262,61.0781 c 0.777,17.6914 38.937,18.3203 39.449,0 v -37.539 h -39.449 z"
             style="fill:#ffffff;fill-opacity:1;fill-rule:evenodd;stroke:none"
             id="path26" />
          <path
             d="m 1008.24,61.0781 c 0.78,17.6914 38.95,18.3203 39.49,0 v -37.539 h -39.49 z"
             style="fill:#ffffff;fill-opacity:1;fill-rule:evenodd;stroke:none"
             id="path28" />
          <path
             d="m 1072.27,61.0781 c 0.78,17.6914 38.94,18.3203 39.45,0 v -37.539 h -39.45 z"
             style="fill:#ffffff;fill-opacity:1;fill-rule:evenodd;stroke:none"
             id="path30" />
          <path
             d="m 1136.29,61.0781 c 0.78,17.6914 38.94,18.3203 39.45,0 v -37.539 h -39.45 z"
             style="fill:#ffffff;fill-opacity:1;fill-rule:evenodd;stroke:none"
             id="path32" />
          <path
             d="m 1200.27,74.75 c 0.82,24.1797 38.95,25 39.5,0 V 23.5391 h -39.5 z"
             style="fill:#ffffff;fill-opacity:1;fill-rule:evenodd;stroke:none"
             id="path34" />
          <path
             d="m 1264.3,74.75 c 0.78,24.1797 38.94,25 39.45,0 V 23.5391 h -39.45 z"
             style="fill:#ffffff;fill-opacity:1;fill-rule:evenodd;stroke:none"
             id="path36" />
          <path
             d="m 944.262,212.68 c 0.777,24.648 38.937,25.468 39.449,0 v -52.192 h -39.449 z"
             style="fill:#ffffff;fill-opacity:1;fill-rule:evenodd;stroke:none"
             id="path38" />
          <path
             d="m 1008.24,212.68 c 0.78,24.648 38.95,25.468 39.49,0 v -52.192 h -39.49 z"
             style="fill:#ffffff;fill-opacity:1;fill-rule:evenodd;stroke:none"
             id="path40" />
          <path
             d="m 1072.27,212.68 c 0.78,24.648 38.94,25.468 39.45,0 v -52.192 h -39.45 z"
             style="fill:#ffffff;fill-opacity:1;fill-rule:evenodd;stroke:none"
             id="path42" />
          <path
             d="m 1136.29,212.68 c 0.78,24.648 38.94,25.468 39.45,0 v -52.192 h -39.45 z"
             style="fill:#ffffff;fill-opacity:1;fill-rule:evenodd;stroke:none"
             id="path44" />
          <path
             d="m 944.262,124.238 c 0.777,24.653 38.937,25.512 39.449,0 V 103.66 h -39.449 z"
             style="fill:#ffffff;fill-opacity:1;fill-rule:evenodd;stroke:none"
             id="path46" />
          <path
             d="m 1008.24,124.238 c 0.78,24.653 38.95,25.512 39.49,0 V 103.66 h -39.49 z"
             style="fill:#ffffff;fill-opacity:1;fill-rule:evenodd;stroke:none"
             id="path48" />
          <path
             d="m 1072.27,124.238 c 0.78,24.653 38.94,25.512 39.45,0 V 103.66 h -39.45 z"
             style="fill:#ffffff;fill-opacity:1;fill-rule:evenodd;stroke:none"
             id="path50" />
          <path
             d="m 1136.29,124.238 c 0.78,24.653 38.94,25.512 39.45,0 V 103.66 h -39.45 z"
             style="fill:#ffffff;fill-opacity:1;fill-rule:evenodd;stroke:none"
             id="path52" />
          <path
             d="m 944.262,281.309 c 0.777,24.652 38.937,25.472 39.449,0 V 260.73 h -39.449 z"
             style="fill:#ffffff;fill-opacity:1;fill-rule:evenodd;stroke:none"
             id="path54" />
          <path
             d="m 1136.29,281.309 c 0.78,24.652 38.94,25.472 39.45,0 V 260.73 h -39.45 z"
             style="fill:#ffffff;fill-opacity:1;fill-rule:evenodd;stroke:none"
             id="path56" />
          <path
             d="m 823.828,116.859 h 27.8906 v 47.8906 H 823.828 Z"
             style="fill:#ffffff;fill-opacity:1;fill-rule:nonzero;stroke:none"
             id="path58" />
          <path
             d="m 884.301,116.859 h 27.9297 v 47.8906 H 884.301 Z"
             style="fill:#ffffff;fill-opacity:1;fill-rule:nonzero;stroke:none"
             id="path60" />
          <path
             d="m 1207.73,116.859 h 27.9297 v 47.8906 H 1207.73 Z"
             style="fill:#ffffff;fill-opacity:1;fill-rule:nonzero;stroke:none"
             id="path62" />
          <path
             d="m 1268.24,116.859 h 27.9336 v 47.8906 H 1268.24 Z"
             style="fill:#ffffff;fill-opacity:1;fill-rule:nonzero;stroke:none"
             id="path64" />
          <path
             d="m 820.199,213.5 h 17.6211 v 22.1484 H 820.199 Z"
             style="fill:#ffffff;fill-opacity:1;fill-rule:nonzero;stroke:none"
             id="path66" />
          <path
             d="m 851.52,213.5 h 17.6211 v 22.1484 H 851.52 Z"
             style="fill:#ffffff;fill-opacity:1;fill-rule:nonzero;stroke:none"
             id="path68" />
          <path
             d="m 882.852,213.5 h 17.6172 v 22.1484 H 882.852 Z"
             style="fill:#ffffff;fill-opacity:1;fill-rule:nonzero;stroke:none"
             id="path70" />
          <path
             d="m 1219.49,213.5 h 17.6211 v 22.1484 H 1219.49 Z"
             style="fill:#ffffff;fill-opacity:1;fill-rule:nonzero;stroke:none"
             id="path72" />
          <path
             d="m 1250.82,213.5 h 17.6211 v 22.1484 H 1250.82 Z"
             style="fill:#ffffff;fill-opacity:1;fill-rule:nonzero;stroke:none"
             id="path74" />
          <path
             d="m 1282.15,213.5 h 17.6211 v 22.1484 H 1282.15 Z"
             style="fill:#ffffff;fill-opacity:1;fill-rule:nonzero;stroke:none"
             id="path76" />
          <path
             d="m 1036.72,273.781 h 46.5195 v 47.8477 H 1036.72 Z"
             style="fill:#ffffff;fill-opacity:1;fill-rule:nonzero;stroke:none"
             id="path78" />
          <path
             d="m 1033.75,400.648 c 0.23,9.532 12.19,9.84 12.38,0 v -20.117 h -12.38 z"
             style="fill:#ffffff;fill-opacity:1;fill-rule:evenodd;stroke:none"
             id="path80" />
          <path
             d="m 1053.79,400.648 c 0.27,9.532 12.23,9.84 12.38,0 v -20.117 h -12.38 z"
             style="fill:#ffffff;fill-opacity:1;fill-rule:evenodd;stroke:none"
             id="path82" />
          <path
             d="m 1073.87,400.648 c 0.23,9.532 12.18,9.84 12.34,0 v -20.117 h -12.34 z"
             style="fill:#ffffff;fill-opacity:1;fill-rule:evenodd;stroke:none"
             id="path84" />
          <path
             d="m 2134.8,355.262 -1.09,-46.453 -210.08,-92.809 4.03,-2.34 v -11.332 h 421.36 v 11.332 l 4.07,2.34 -210.08,92.809 -1.17,46.453 z M 1927.66,42.4492 h 421.359 v 154.102 H 1927.66 Z"
             style="fill:#000000;fill-opacity:1;fill-rule:nonzero;stroke:none"
             id="path86" />
          <path
             d="m 2186.48,160.531 h 134.059 v 27.8906 H 2186.48 Z"
             style="fill:#ffffff;fill-opacity:1;fill-rule:nonzero;stroke:none"
             id="path88" />
          <path
             d="m 1956.88,160.531 h 83.9492 v 27.8906 H 1956.88 Z"
             style="fill:#ffffff;fill-opacity:1;fill-rule:nonzero;stroke:none"
             id="path90" />
          <path
             d="m 2075.66,53.7695 h 68.4805 v 121.879 H 2075.66 Z"
             style="fill:#ffffff;fill-opacity:1;fill-rule:nonzero;stroke:none"
             id="path92" />
          <path
             d="m 4549.18,522.129 -1.56,-57.34 -62.46,-77.73 -18.75,-9.258 7.34,-4.301 v -54.77 h 154.14 v 54.77 l 7.38,4.301 -18.75,9.258 -62.5,77.73 -1.52,57.34 z M 4473.75,50.2617 h 154.141 v 262.539 H 4473.75 Z"
             style="fill:#000000;fill-opacity:1;fill-rule:nonzero;stroke:none"
             id="path94" />
          <path
             d="m 4542.81,176.121 c 0.32,16.828 15.86,17.379 16.1,0 v -35.633 h -16.1 z"
             style="fill:#ffffff;fill-opacity:1;fill-rule:evenodd;stroke:none"
             id="path96" />
          <path
             d="m 4542.81,281.352 c 0.32,16.796 15.86,17.378 16.1,0 v -35.661 h -16.1 z"
             style="fill:#ffffff;fill-opacity:1;fill-rule:evenodd;stroke:none"
             id="path98" />
          <path
             d="m 4517.07,344.789 h 20.0781 v 21.1328 H 4517.07 Z"
             style="fill:#ffffff;fill-opacity:1;fill-rule:nonzero;stroke:none"
             id="path100" />
          <path
             d="m 4564.53,344.789 h 20.0781 v 21.1328 H 4564.53 Z"
             style="fill:#ffffff;fill-opacity:1;fill-rule:nonzero;stroke:none"
             id="path102" />
          <path
             d="m 3411.21,482.41 v -14.769 h 19.53 V 435.02 h -12.34 l -1.02,-3.43 v -28.828 h -29.68 v -32.231 h -38.13 c 0,0 3.71,-6.953 5.35,-8.472 1.68,-1.528 0,-36.68 0,-36.68 h -13.32 v 14.531 l 3.44,3.43 h -30.12 c 0,0 -0.94,21.14 0,22.039 0.94,0.93 3.05,5.152 3.05,5.152 h -20.94 v 19.418 h -16.37 v 17.262 l -0.62,2.148 h -0.2 v 0.981 h -10.39 v -5.551 h 6.88 v -14.84 h -16.37 v -19.418 h -20.94 c 0,0 2.03,-4.222 2.93,-5.152 0.94,-0.899 0,-22.039 0,-22.039 h -30 l 3.44,-3.43 V 168.73 l -1.72,-1.832 v -10.589 l 2.03,-0.618 V 38.1914 h 344.18 V 319.711 l 6.14,5.668 h -54.65 c 0,0 -1.68,35.152 0,36.68 1.68,1.519 5.47,8.472 5.47,8.472 h -38.13 v 32.231 h -29.69 v 28.828 l -1.01,3.43 h -12.23 v 38.089 h -0.82 v 9.301 z"
             style="fill:#000000;fill-opacity:1;fill-rule:nonzero;stroke:none"
             id="path104" />
          <path
             d="m 3225.04,48.1484 h 25.3516 V 97.9492 H 3225.04 Z"
             style="fill:#ffffff;fill-opacity:1;fill-rule:nonzero;stroke:none"
             id="path106" />
          <path
             d="m 3265.27,48.1484 h 25.3086 V 97.9492 H 3265.27 Z"
             style="fill:#ffffff;fill-opacity:1;fill-rule:nonzero;stroke:none"
             id="path108" />
          <path
             d="m 3305.51,48.1484 h 25.3086 V 97.9492 H 3305.51 Z"
             style="fill:#ffffff;fill-opacity:1;fill-rule:nonzero;stroke:none"
             id="path110" />
          <path
             d="m 3225.04,113.621 h 25.3516 v 25.3086 H 3225.04 Z"
             style="fill:#ffffff;fill-opacity:1;fill-rule:nonzero;stroke:none"
             id="path112" />
          <path
             d="m 3265.27,113.621 h 25.3086 v 25.3086 H 3265.27 Z"
             style="fill:#ffffff;fill-opacity:1;fill-rule:nonzero;stroke:none"
             id="path114" />
          <path
             d="m 3305.51,113.621 h 25.3086 v 25.3086 H 3305.51 Z"
             style="fill:#ffffff;fill-opacity:1;fill-rule:nonzero;stroke:none"
             id="path116" />
          <path
             d="m 3225.04,179.09 h 25.3516 v 39.1797 H 3225.04 Z"
             style="fill:#ffffff;fill-opacity:1;fill-rule:nonzero;stroke:none"
             id="path118" />
          <path
             d="m 3265.27,179.09 h 25.3086 v 39.1797 H 3265.27 Z"
             style="fill:#ffffff;fill-opacity:1;fill-rule:nonzero;stroke:none"
             id="path120" />
          <path
             d="m 3305.51,179.09 h 25.3086 v 39.1797 H 3305.51 Z"
             style="fill:#ffffff;fill-opacity:1;fill-rule:nonzero;stroke:none"
             id="path122" />
          <path
             d="m 3225.04,244.559 h 25.3516 v 28.5508 H 3225.04 Z"
             style="fill:#ffffff;fill-opacity:1;fill-rule:nonzero;stroke:none"
             id="path124" />
          <path
             d="m 3265.27,244.559 h 25.3086 v 28.5508 H 3265.27 Z"
             style="fill:#ffffff;fill-opacity:1;fill-rule:nonzero;stroke:none"
             id="path126" />
          <path
             d="m 3305.51,244.559 h 25.3086 v 28.5508 H 3305.51 Z"
             style="fill:#ffffff;fill-opacity:1;fill-rule:nonzero;stroke:none"
             id="path128" />
          <path
             d="m 3346.72,259.828 c 0.47,11.094 23.16,11.481 23.48,0 v -23.519 h -23.48 z"
             style="fill:#ffffff;fill-opacity:1;fill-rule:evenodd;stroke:none"
             id="path130" />
          <path
             d="m 3386.05,259.828 c 0.47,11.094 23.21,11.481 23.52,0 v -23.519 h -23.52 z"
             style="fill:#ffffff;fill-opacity:1;fill-rule:evenodd;stroke:none"
             id="path132" />
          <path
             d="m 3425.43,259.828 c 0.47,11.094 23.2,11.481 23.52,0 v -23.519 h -23.52 z"
             style="fill:#ffffff;fill-opacity:1;fill-rule:evenodd;stroke:none"
             id="path134" />
          <path
             d="m 3504.14,259.828 c 0.47,11.094 23.2,11.481 23.52,0 v -23.519 h -23.52 z"
             style="fill:#ffffff;fill-opacity:1;fill-rule:evenodd;stroke:none"
             id="path136" />
          <path
             d="m 3464.77,259.828 c 0.46,11.094 23.2,11.481 23.51,0 v -23.519 h -23.51 z"
             style="fill:#ffffff;fill-opacity:1;fill-rule:evenodd;stroke:none"
             id="path138" />
          <path
             d="m 3365.2,302.211 c 0.35,7.969 18.43,8.238 18.67,0 v -16.91 h -18.67 z"
             style="fill:#ffffff;fill-opacity:1;fill-rule:evenodd;stroke:none"
             id="path140" />
          <path
             d="m 3396.48,302.211 c 0.4,7.969 18.48,8.238 18.72,0 v -16.91 h -18.72 z"
             style="fill:#ffffff;fill-opacity:1;fill-rule:evenodd;stroke:none"
             id="path142" />
          <path
             d="m 3427.81,302.211 c 0.39,7.969 18.48,8.238 18.71,0 v -16.91 h -18.71 z"
             style="fill:#ffffff;fill-opacity:1;fill-rule:evenodd;stroke:none"
             id="path144" />
          <path
             d="m 3490.47,302.211 c 0.39,7.969 18.48,8.238 18.71,0 v -16.91 h -18.71 z"
             style="fill:#ffffff;fill-opacity:1;fill-rule:evenodd;stroke:none"
             id="path146" />
          <path
             d="m 3459.14,302.211 c 0.39,7.969 18.48,8.238 18.71,0 v -16.91 h -18.71 z"
             style="fill:#ffffff;fill-opacity:1;fill-rule:evenodd;stroke:none"
             id="path148" />
          <path
             d="m 3346.37,201.941 c 0.62,14.258 29.76,14.719 30.15,0 v -30.16 h -30.15 z"
             style="fill:#ffffff;fill-opacity:1;fill-rule:evenodd;stroke:none"
             id="path150" />
          <path
             d="m 3396.88,201.941 c 0.58,14.258 29.72,14.719 30.11,0 v -30.16 h -30.11 z"
             style="fill:#ffffff;fill-opacity:1;fill-rule:evenodd;stroke:none"
             id="path152" />
          <path
             d="m 3447.34,201.941 c 0.59,14.258 29.77,14.719 30.16,0 v -30.16 h -30.16 z"
             style="fill:#ffffff;fill-opacity:1;fill-rule:evenodd;stroke:none"
             id="path154" />
          <path
             d="m 3497.81,201.941 c 0.63,14.258 29.77,14.719 30.16,0 v -30.16 h -30.16 z"
             style="fill:#ffffff;fill-opacity:1;fill-rule:evenodd;stroke:none"
             id="path156" />
          <path
             d="m 3401.64,344.52 c 0.31,7.691 16.13,7.96 16.33,0 v -16.372 h -16.33 z"
             style="fill:#ffffff;fill-opacity:1;fill-rule:evenodd;stroke:none"
             id="path158" />
          <path
             d="m 3428.98,344.52 c 0.36,7.691 16.14,7.96 16.37,0 v -16.372 h -16.37 z"
             style="fill:#ffffff;fill-opacity:1;fill-rule:evenodd;stroke:none"
             id="path160" />
          <path
             d="m 3456.37,344.52 c 0.31,7.691 16.13,7.96 16.33,0 v -16.372 h -16.33 z"
             style="fill:#ffffff;fill-opacity:1;fill-rule:evenodd;stroke:none"
             id="path162" />
          <path
             d="m 3427.81,385.102 c 0.39,7.968 18.48,8.238 18.71,0 v -16.911 h -18.71 z"
             style="fill:#ffffff;fill-opacity:1;fill-rule:evenodd;stroke:none"
             id="path164" />
          <path
             d="m 3413.75,115.262 c 0.94,29.367 46.25,30.386 46.88,0 V 52.9883 h -46.88 z"
             style="fill:#ffffff;fill-opacity:1;fill-rule:evenodd;stroke:none"
             id="path166" />
          <path
             d="m 3254.45,310.609 c 0.2,7.731 10.67,7.969 10.78,0 v -16.328 h -10.78 z"
             style="fill:#ffffff;fill-opacity:1;fill-rule:evenodd;stroke:none"
             id="path168" />
          <path
             d="m 3272.54,310.609 c 0.19,7.731 10.66,7.969 10.78,0 v -16.328 h -10.78 z"
             style="fill:#ffffff;fill-opacity:1;fill-rule:evenodd;stroke:none"
             id="path170" />
          <path
             d="m 3290.63,310.609 c 0.19,7.731 10.66,7.969 10.78,0 v -16.328 h -10.78 z"
             style="fill:#ffffff;fill-opacity:1;fill-rule:evenodd;stroke:none"
             id="path172" />
          <path
             d="m 3272.54,358.379 c 0.19,7.742 10.66,7.973 10.78,0 V 342.02 h -10.78 z"
             style="fill:#ffffff;fill-opacity:1;fill-rule:evenodd;stroke:none"
             id="path174" />
          <path
             d="m 4133.44,340.609 -82.46,-34.488 15.19,-8.832 V 238.66 l -125.78,-1.64 -3.16,-5.43 7.97,-4.61 v -7.152 h 499.53 l -0.67,4.922 -0.62,16.41 -11.17,8.238 -212.97,3.672 v 51.989 l 9.92,5.242 z M 3945.2,214.59 v -54.641 h 502.69 v 35.821 l -2.5,18.82 z m -31.22,-31.559 V 148.27 h -44.02 l -23.2,-6.211 1.72,-6.528 c 0,0 -0.82,-42.8122 0,-45.9021 0.82,-3.0391 -4.65,-8.0391 -4.65,-8.0391 V 49.3984 h 604.06 V 153.109 H 3945.2 v -5.429 h -24.65 v 35.351 z"
             style="fill:#000000;fill-opacity:1;fill-rule:nonzero;stroke:none"
             id="path176" />
          <path
             d="m 4088.71,104.398 c 0.55,18.872 28.56,19.493 28.95,0 V 64.3984 h -28.95 z"
             style="fill:#ffffff;fill-opacity:1;fill-rule:evenodd;stroke:none"
             id="path178" />
          <path
             d="m 4130.16,104.398 c 0.58,18.872 28.55,19.493 28.94,0 V 64.3984 h -28.94 z"
             style="fill:#ffffff;fill-opacity:1;fill-rule:evenodd;stroke:none"
             id="path180" />
          <path
             d="m 4169.65,104.398 c 0.58,18.872 28.55,19.493 28.94,0 V 64.3984 h -28.94 z"
             style="fill:#ffffff;fill-opacity:1;fill-rule:evenodd;stroke:none"
             id="path182" />
          <path
             d="m 3869.84,90.8398 c 0.39,10.6292 17.86,11.0192 18.09,0 V 68.2695 h -18.09 z"
             style="fill:#ffffff;fill-opacity:1;fill-rule:evenodd;stroke:none"
             id="path184" />
          <path
             d="m 3895.74,90.8398 c 0.35,10.6292 17.85,11.0192 18.09,0 V 68.2695 h -18.09 z"
             style="fill:#ffffff;fill-opacity:1;fill-rule:evenodd;stroke:none"
             id="path186" />
          <path
             d="m 3920.39,90.8398 c 0.39,10.6292 17.85,11.0192 18.09,0 V 68.2695 h -18.09 z"
             style="fill:#ffffff;fill-opacity:1;fill-rule:evenodd;stroke:none"
             id="path188" />
          <path
             d="m 3953.67,90.8398 c 0.39,10.6292 17.85,11.0192 18.09,0 V 68.2695 h -18.09 z"
             style="fill:#ffffff;fill-opacity:1;fill-rule:evenodd;stroke:none"
             id="path190" />
          <path
             d="m 3979.57,90.8398 c 0.35,10.6292 17.85,11.0192 18.09,0 V 68.2695 h -18.09 z"
             style="fill:#ffffff;fill-opacity:1;fill-rule:evenodd;stroke:none"
             id="path192" />
          <path
             d="m 4004.22,90.8398 c 0.35,10.6292 17.85,11.0192 18.08,0 V 68.2695 h -18.08 z"
             style="fill:#ffffff;fill-opacity:1;fill-rule:evenodd;stroke:none"
             id="path194" />
          <path
             d="m 4237.15,97.1719 c 0.43,12.3871 20.78,12.8081 21.05,0 v -26.293 h -21.05 z"
             style="fill:#ffffff;fill-opacity:1;fill-rule:evenodd;stroke:none"
             id="path196" />
          <path
             d="m 4267.3,97.1719 c 0.43,12.3871 20.75,12.8081 21.02,0 v -26.293 h -21.02 z"
             style="fill:#ffffff;fill-opacity:1;fill-rule:evenodd;stroke:none"
             id="path198" />
          <path
             d="m 4296.02,97.1719 c 0.39,12.3871 20.74,12.8081 21.01,0 v -26.293 h -21.01 z"
             style="fill:#ffffff;fill-opacity:1;fill-rule:evenodd;stroke:none"
             id="path200" />
          <path
             d="m 4334.73,97.1719 c 0.43,12.3871 20.78,12.8081 21.05,0 v -26.293 h -21.05 z"
             style="fill:#ffffff;fill-opacity:1;fill-rule:evenodd;stroke:none"
             id="path202" />
          <path
             d="m 4364.88,97.1719 c 0.43,12.3871 20.75,12.8081 21.02,0 v -26.293 h -21.02 z"
             style="fill:#ffffff;fill-opacity:1;fill-rule:evenodd;stroke:none"
             id="path204" />
          <path
             d="m 4393.59,97.1719 c 0.39,12.3871 20.75,12.8081 21.02,0 v -26.293 h -21.02 z"
             style="fill:#ffffff;fill-opacity:1;fill-rule:evenodd;stroke:none"
             id="path206" />
          <path
             d="m 4086.72,231.039 h 21.0508 v 39.4922 H 4086.72 Z"
             style="fill:#ffffff;fill-opacity:1;fill-rule:nonzero;stroke:none"
             id="path208" />
          <path
             d="m 4134.1,231.039 h 21.0469 v 39.4922 H 4134.1 Z"
             style="fill:#ffffff;fill-opacity:1;fill-rule:nonzero;stroke:none"
             id="path210" />
          <path
             d="m 4181.48,231.039 h 21.0508 v 39.4922 H 4181.48 Z"
             style="fill:#ffffff;fill-opacity:1;fill-rule:nonzero;stroke:none"
             id="path212" />
          <path
             d="m 4086.72,169.828 h 21.0508 v 34.2227 H 4086.72 Z"
             style="fill:#ffffff;fill-opacity:1;fill-rule:nonzero;stroke:none"
             id="path214" />
          <path
             d="m 4134.1,169.828 h 21.0469 v 34.2227 H 4134.1 Z"
             style="fill:#ffffff;fill-opacity:1;fill-rule:nonzero;stroke:none"
             id="path216" />
          <path
             d="m 4181.48,169.828 h 21.0508 v 34.2227 H 4181.48 Z"
             style="fill:#ffffff;fill-opacity:1;fill-rule:nonzero;stroke:none"
             id="path218" />
          <path
             d="m 3964.3,169.828 h 15.0781 v 34.2227 H 3964.3 Z"
             style="fill:#ffffff;fill-opacity:1;fill-rule:nonzero;stroke:none"
             id="path220" />
          <path
             d="m 3998.2,169.828 h 15.082 v 34.2227 H 3998.2 Z"
             style="fill:#ffffff;fill-opacity:1;fill-rule:nonzero;stroke:none"
             id="path222" />
          <path
             d="m 4032.15,169.828 h 15.082 v 34.2227 h -15.082 z"
             style="fill:#ffffff;fill-opacity:1;fill-rule:nonzero;stroke:none"
             id="path224" />
          <path
             d="m 4244.02,169.828 h 15.082 v 34.2227 h -15.082 z"
             style="fill:#ffffff;fill-opacity:1;fill-rule:nonzero;stroke:none"
             id="path226" />
          <path
             d="m 4277.93,169.828 h 15.082 v 34.2227 h -15.082 z"
             style="fill:#ffffff;fill-opacity:1;fill-rule:nonzero;stroke:none"
             id="path228" />
          <path
             d="m 4311.88,169.828 h 15.082 v 34.2227 h -15.082 z"
             style="fill:#ffffff;fill-opacity:1;fill-rule:nonzero;stroke:none"
             id="path230" />
          <path
             d="m 4361.68,174.441 h 8.75 v 14.4492 h -8.75 z"
             style="fill:#ffffff;fill-opacity:1;fill-rule:nonzero;stroke:none"
             id="path232" />
          <path
             d="m 4381.33,174.441 h 8.75 v 14.4492 h -8.75 z"
             style="fill:#ffffff;fill-opacity:1;fill-rule:nonzero;stroke:none"
             id="path234" />
          <path
             d="m 4400.98,174.441 h 8.7109 v 14.4492 h -8.7109 z"
             style="fill:#ffffff;fill-opacity:1;fill-rule:nonzero;stroke:none"
             id="path236" />
          <path
             d="M 4867.58,312.91 4692.5,211.781 h 6.48 V 148.73 h -45.15 v -12.031 h 365.58 V 130.41 H 4682.42 V 48.0703 h 383.52 V 266.469 l 8.32,8.281 h -139.42 l -19.21,11.09 v 22.66 h -15.71 v -14.301 z"
             style="fill:#000000;fill-opacity:1;fill-rule:nonzero;stroke:none"
             id="path238" />
          <path
             d="m 4869.41,305.34 -2.5,-4.34 161.33,-93.16 v -84.57 h 5 v 87.46 l -1.25,0.7 z"
             style="fill:#ffffff;fill-opacity:1;fill-rule:nonzero;stroke:none"
             id="path240" />
          <path
             d="m 4659.61,43.5703 h 9.8398 v 99.3789 h -9.8398 z"
             style="fill:#000000;fill-opacity:1;fill-rule:nonzero;stroke:none"
             id="path242" />
          <path
             d="m 4750.04,142.949 h 21.4414 v 33.9922 H 4750.04 Z m 26.21,0 h 19.8008 v 33.9922 H 4776.25 Z m 24.57,0 h 19.8398 v 33.9922 H 4800.82 Z m 24.57,0 h 19.8789 v 33.9922 H 4825.39 Z m 24.61,0 h 19.8398 v 33.9922 H 4850 Z m 24.57,0 h 19.8398 v 33.9922 H 4874.57 Z m 24.61,0 h 22.6602 v 33.9922 H 4899.18 Z"
             style="fill:#ffffff;fill-opacity:1;fill-rule:nonzero;stroke:none"
             id="path244" />
          <path
             d="m 3637.46,632.559 v -48.547 h 138.67 v 48.547 h -9.96 v -14.25 h -20.47 v 14.25 h -12.3 v -14.25 h -20.47 v 14.25 h -12.27 v -14.25 h -20.46 v 14.25 h -12.35 v -14.25 h -20.43 v 14.25 z m 0,-56.911 v -57.617 c 0.63,0.039 1.25,0.039 1.92,0.039 h 136.75 v 57.578 z m 0,-63.359 V 446 l 5.12,-22.969 v -120 h -23.83 l -0.16,9.649 -1.52,1.172 v 5.429 l 0.82,10.348 0.7,5.82 0.16,3.09 -5,-1.949 0.12,2.73 1.6,4.61 -7.23,1.019 -5.23,13.321 h -1.64 l -5.24,-13.321 -7.18,-1.019 1.6,-4.61 0.11,-2.73 -5,1.949 0.12,-3.09 0.7,-5.82 0.9,-10.348 v -5.429 l -1.6,-1.172 -0.39,-27.809 h 239.14 l -0.43,27.809 -1.56,1.172 v 5.429 l 0.82,10.348 0.74,5.82 0.16,3.09 -5,-1.949 0.08,2.73 1.6,4.61 -7.23,1.019 -5.19,13.321 h -1.68 l -5.2,-13.321 -7.19,-1.019 1.6,-4.61 0.12,-2.73 -5,1.949 0.08,-3.09 0.74,-5.82 0.86,-10.348 v -5.429 l -1.6,-1.172 -0.08,-9.649 h -20.15 v 120 l 5.11,22.969 v 66.25 h -136.75 c -0.67,0 -1.29,0 -1.92,0.039 z m -52.15,-234.098 -0.08,-6.062 -0.66,-1.789 V 42.3711 h 13.59 v -2.5 h 213.6 v 2.5 h 13.51 V 270.34 l -0.58,1.789 -0.12,6.062 z"
             style="fill:#000000;fill-opacity:1;fill-rule:nonzero;stroke:none"
             id="path246" />
          <path
             d="m 3669.92,477.762 h 0.86 c 4.53,0 8.2,-3.09 8.2,-6.953 V 328.27 c 0,-3.829 -3.67,-6.918 -8.2,-6.918 h -0.86 c -4.53,0 -8.16,3.089 -8.16,6.918 v 142.539 c 0,3.863 3.63,6.953 8.16,6.953 z"
             style="fill:#ffffff;fill-opacity:1;fill-rule:nonzero;stroke:none"
             id="path248" />
          <path
             d="m 3704.88,469.281 h 0.71 c 3.94,0 7.07,-2.691 7.07,-5.972 v -136.25 c 0,-3.329 -3.13,-5.981 -7.07,-5.981 h -0.71 c -3.94,0 -7.07,2.652 -7.07,5.981 v 136.25 c 0,3.281 3.13,5.972 7.07,5.972 z"
             style="fill:#ffffff;fill-opacity:1;fill-rule:nonzero;stroke:none"
             id="path250" />
          <path
             d="m 3739.69,477.762 h 0.82 c 4.22,0 7.62,-2.891 7.62,-6.492 V 327.801 c 0,-3.563 -3.4,-6.449 -7.62,-6.449 h -0.82 c -4.22,0 -7.62,2.886 -7.62,6.449 V 471.27 c 0,3.601 3.4,6.492 7.62,6.492 z"
             style="fill:#ffffff;fill-opacity:1;fill-rule:nonzero;stroke:none"
             id="path252" />
          <path
             d="m 3749.38,230.02 c 0.35,8.05 17.3,8.32 17.5,0 v -17.071 h -17.5 z"
             style="fill:#ffffff;fill-opacity:1;fill-rule:evenodd;stroke:none"
             id="path254" />
          <path
             d="m 3778.59,230.02 c 0.36,8.05 17.27,8.32 17.5,0 v -17.071 h -17.5 z"
             style="fill:#ffffff;fill-opacity:1;fill-rule:evenodd;stroke:none"
             id="path256" />
          <path
             d="m 3613.79,230.02 c 0.35,8.05 17.26,8.32 17.5,0 v -17.071 h -17.5 z"
             style="fill:#ffffff;fill-opacity:1;fill-rule:evenodd;stroke:none"
             id="path258" />
          <path
             d="m 3642.97,230.02 c 0.35,8.05 17.3,8.32 17.54,0 v -17.071 h -17.54 z"
             style="fill:#ffffff;fill-opacity:1;fill-rule:evenodd;stroke:none"
             id="path260" />
          <path
             d="m 3749.38,158.809 c 0.35,19.101 17.3,19.769 17.5,0 v -40.43 h -17.5 z"
             style="fill:#ffffff;fill-opacity:1;fill-rule:evenodd;stroke:none"
             id="path262" />
          <path
             d="m 3778.59,158.809 c 0.36,19.101 17.27,19.769 17.5,0 v -40.43 h -17.5 z"
             style="fill:#ffffff;fill-opacity:1;fill-rule:evenodd;stroke:none"
             id="path264" />
          <path
             d="m 3613.79,158.809 c 0.35,19.101 17.26,19.769 17.5,0 v -40.43 h -17.5 z"
             style="fill:#ffffff;fill-opacity:1;fill-rule:evenodd;stroke:none"
             id="path266" />
          <path
             d="m 3642.97,158.809 c 0.35,19.101 17.3,19.769 17.54,0 v -40.43 h -17.54 z"
             style="fill:#ffffff;fill-opacity:1;fill-rule:evenodd;stroke:none"
             id="path268" />
          <path
             d="M 525.199,386.629 V 367.52 c -6.527,-0.86 -12.699,-5.391 -13.398,-13.899 v -2.93 h 3.16 v -27.312 l -3.672,-0.27 -60.348,-57.539 v -79.019 h -1.25 L 343.91,285.219 254.879,207.91 219.648,238.27 178.09,184.91 120.898,251.199 61.9102,180.102 66.4805,179.871 66.6016,58.5391 H 759.379 V 175.531 h -3.359 l -2.04,1.289 -0.582,26.559 -56.019,68.32 h -12.258 l -15.59,-19.609 h -0.742 v -1.012 l -35.66,-45.039 -0.43,-19.488 h -25.16 l -0.348,72.687 -63.75,65.742 h -3.32 v 24.969 h 2.539 v 3.672 c -0.711,8.707 -6.961,13.359 -13.68,14.02 v 18.988 z"
             style="fill:#000000;fill-opacity:1;fill-rule:nonzero;stroke:none"
             id="path270" />
          <path
             d="m 701.371,187.02 h 19.0586 v 14.0195 H 701.371 Z"
             style="fill:#ffffff;fill-opacity:1;fill-rule:evenodd;stroke:none"
             id="path272" />
          <path
             d="m 662.23,187.02 h 19.0586 v 14.0195 H 662.23 Z"
             style="fill:#ffffff;fill-opacity:1;fill-rule:evenodd;stroke:none"
             id="path274" />
          <path
             d="m 720.199,152.102 h 19.0625 v 13.9766 H 720.199 Z"
             style="fill:#ffffff;fill-opacity:1;fill-rule:evenodd;stroke:none"
             id="path276" />
          <path
             d="m 681.09,152.102 h 19.0586 v 13.9766 H 681.09 Z"
             style="fill:#ffffff;fill-opacity:1;fill-rule:evenodd;stroke:none"
             id="path278" />
          <path
             d="m 638.91,150.648 h 19.0586 v 13.9805 H 638.91 Z"
             style="fill:#ffffff;fill-opacity:1;fill-rule:evenodd;stroke:none"
             id="path280" />
          <path
             d="m 718.238,108.031 h 19.0625 v 26.6406 H 718.238 Z"
             style="fill:#ffffff;fill-opacity:1;fill-rule:evenodd;stroke:none"
             id="path282" />
          <path
             d="m 679.141,108.031 h 19.0586 v 26.6406 H 679.141 Z"
             style="fill:#ffffff;fill-opacity:1;fill-rule:evenodd;stroke:none"
             id="path284" />
          <path
             d="m 636.949,105.262 h 19.0625 v 26.6367 H 636.949 Z"
             style="fill:#ffffff;fill-opacity:1;fill-rule:evenodd;stroke:none"
             id="path286" />
          <path
             d="m 739.34,77.2891 c -1.57,16.6406 -27.5,16.4414 -28.25,0 V 53.7305 h 28.25 z"
             style="fill:#ffffff;fill-opacity:1;fill-rule:evenodd;stroke:none"
             id="path288" />
          <path
             d="m 701.52,77.2891 c -1.559,16.6406 -27.5,16.4414 -28.239,0 V 53.7305 h 28.239 z"
             style="fill:#ffffff;fill-opacity:1;fill-rule:evenodd;stroke:none"
             id="path290" />
          <path
             d="m 663.711,77.2891 c -1.602,16.6406 -27.5,16.4414 -28.242,0 V 53.7305 h 28.242 z"
             style="fill:#ffffff;fill-opacity:1;fill-rule:evenodd;stroke:none"
             id="path292" />
          <path
             d="m 413.398,107.559 c -2.968,35.632 -51.878,35.203 -53.277,0 V 57.1719 h 53.277 z"
             style="fill:#ffffff;fill-opacity:1;fill-rule:evenodd;stroke:none"
             id="path294" />
          <path
             d="m 337.148,107.559 c -2.968,35.632 -51.878,35.203 -53.238,0 V 57.1719 h 53.238 z"
             style="fill:#ffffff;fill-opacity:1;fill-rule:evenodd;stroke:none"
             id="path296" />
          <path
             d="m 581.48,84.3984 c -1.871,21.0896 -33.039,20.8636 -33.902,0 V 54.5586 h 33.902 z"
             style="fill:#ffffff;fill-opacity:1;fill-rule:evenodd;stroke:none"
             id="path298" />
          <path
             d="m 515.27,84.3984 c -1.872,21.0896 -33,20.8636 -33.899,0 V 54.5586 h 33.899 z"
             style="fill:#ffffff;fill-opacity:1;fill-rule:evenodd;stroke:none"
             id="path300" />
          <path
             d="m 488.09,177.988 h 20.4688 v 54.3008 H 488.09 Z"
             style="fill:#ffffff;fill-opacity:1;fill-rule:evenodd;stroke:none"
             id="path302" />
          <path
             d="m 517.77,290.961 h 19.3398 v 14.6094 H 517.77 Z"
             style="fill:#ffffff;fill-opacity:1;fill-rule:evenodd;stroke:none"
             id="path304" />
          <path
             d="m 489.609,269.051 h 15.9414 v 12.5 H 489.609 Z"
             style="fill:#ffffff;fill-opacity:1;fill-rule:evenodd;stroke:none"
             id="path306" />
          <path
             d="m 555.59,269.051 h 15.9414 v 12.5 H 555.59 Z"
             style="fill:#ffffff;fill-opacity:1;fill-rule:evenodd;stroke:none"
             id="path308" />
          <path
             d="m 347.66,212.68 h 21.3281 v 16.2891 H 347.66 Z"
             style="fill:#ffffff;fill-opacity:1;fill-rule:evenodd;stroke:none"
             id="path310" />
          <path
             d="m 315.078,212.68 h 21.332 v 16.2891 h -21.332 z"
             style="fill:#ffffff;fill-opacity:1;fill-rule:evenodd;stroke:none"
             id="path312" />
          <path
             d="m 381.129,177.52 h 21.3711 v 25.0391 H 381.129 Z"
             style="fill:#ffffff;fill-opacity:1;fill-rule:evenodd;stroke:none"
             id="path314" />
          <path
             d="m 348.59,177.52 h 21.332 v 25.0391 H 348.59 Z"
             style="fill:#ffffff;fill-opacity:1;fill-rule:evenodd;stroke:none"
             id="path316" />
          <path
             d="m 316.02,177.52 h 21.332 v 25.0391 H 316.02 Z"
             style="fill:#ffffff;fill-opacity:1;fill-rule:evenodd;stroke:none"
             id="path318" />
          <path
             d="m 283.441,177.52 h 21.3281 v 25.0391 H 283.441 Z"
             style="fill:#ffffff;fill-opacity:1;fill-rule:evenodd;stroke:none"
             id="path320" />
          <path
             d="m 245.039,112.129 h 13.5195 v 15.8594 H 245.039 Z"
             style="fill:#ffffff;fill-opacity:1;fill-rule:evenodd;stroke:none"
             id="path322" />
          <path
             d="m 224.41,112.129 h 13.5195 v 15.8594 H 224.41 Z"
             style="fill:#ffffff;fill-opacity:1;fill-rule:evenodd;stroke:none"
             id="path324" />
          <path
             d="m 203.789,112.129 h 13.5195 v 15.8594 H 203.789 Z"
             style="fill:#ffffff;fill-opacity:1;fill-rule:evenodd;stroke:none"
             id="path326" />
          <path
             d="m 183.16,112.129 h 13.5195 v 15.8594 H 183.16 Z"
             style="fill:#ffffff;fill-opacity:1;fill-rule:evenodd;stroke:none"
             id="path328" />
          <path
             d="m 134.41,139.898 h 12.3789 v 25.9414 H 134.41 Z"
             style="fill:#ffffff;fill-opacity:1;fill-rule:evenodd;stroke:none"
             id="path330" />
          <path
             d="m 115.512,139.898 h 12.3789 v 25.9414 H 115.512 Z"
             style="fill:#ffffff;fill-opacity:1;fill-rule:evenodd;stroke:none"
             id="path332" />
          <path
             d="m 96.6016,139.898 h 12.3789 v 25.9414 H 96.6016 Z"
             style="fill:#ffffff;fill-opacity:1;fill-rule:evenodd;stroke:none"
             id="path334" />
          <path
             d="m 134.219,98.8906 h 12.582 v 25.9805 h -12.582 z"
             style="fill:#ffffff;fill-opacity:1;fill-rule:evenodd;stroke:none"
             id="path336" />
          <path
             d="m 115,98.8906 h 12.5781 v 25.9805 H 115 Z"
             style="fill:#ffffff;fill-opacity:1;fill-rule:evenodd;stroke:none"
             id="path338" />
          <path
             d="m 95.7813,98.8906 h 12.5781 v 25.9805 H 95.7813 Z"
             style="fill:#ffffff;fill-opacity:1;fill-rule:evenodd;stroke:none"
             id="path340" />
          <path
             d="m 244.84,165.57 h 13.4805 v 15.8594 H 244.84 Z"
             style="fill:#ffffff;fill-opacity:1;fill-rule:evenodd;stroke:none"
             id="path342" />
          <path
             d="m 224.219,165.57 h 13.4805 v 15.8594 H 224.219 Z"
             style="fill:#ffffff;fill-opacity:1;fill-rule:evenodd;stroke:none"
             id="path344" />
          <path
             d="m 203.551,165.57 h 13.5195 v 15.8594 H 203.551 Z"
             style="fill:#ffffff;fill-opacity:1;fill-rule:evenodd;stroke:none"
             id="path346" />
          <path
             d="m 182.93,165.57 h 13.5195 v 15.8594 H 182.93 Z"
             style="fill:#ffffff;fill-opacity:1;fill-rule:evenodd;stroke:none"
             id="path348" />
          <path
             d="m 554.301,177.48 h 20.4688 v 54.3008 H 554.301 Z"
             style="fill:#ffffff;fill-opacity:1;fill-rule:evenodd;stroke:none"
             id="path350" />
          <path
             d="M 2381.37,39.2383 V 153.77 l -9.73,14.691 16.91,3.949 v 67.809 l -7.03,1.64 46.1,40.121 79.45,119.758 h 417.97 V 38.1094 Z"
             style="fill:#000000;fill-opacity:1;fill-rule:nonzero;stroke:none"
             id="path352" />
          <path
             d="m 3052.23,854.359 1.75,-45.308 13.95,-88.91 33.12,-71.442 h -8.75 l 5.24,-84.539 c 4.06,-22.219 20.74,-21.211 36.6,-35.699 l -12.19,-1.762 11.33,-33.98 c 6.84,-26.641 30.16,-45.078 60.12,-60.117 h -15.67 V 37.5195 H 2920.66 V 432.602 h -15.7 c 30,15.039 53.28,33.476 60.12,60.117 l 11.33,33.98 -12.19,1.762 c 15.9,14.488 32.54,13.48 36.6,35.699 l 5.23,84.539 h -8.71 l 33.13,71.442 13.91,88.91 1.75,45.308 z"
             style="fill:#000000;fill-opacity:1;fill-rule:nonzero;stroke:none"
             id="path354" />
          <path
             d="m 2977.46,269.48 c 0.67,19.918 32.42,20.579 32.85,0 v -42.191 h -32.85 z"
             style="fill:#ffffff;fill-opacity:1;fill-rule:evenodd;stroke:none"
             id="path356" />
          <path
             d="m 3088.09,269.48 c 0.62,19.918 32.38,20.579 32.81,0 v -42.191 h -32.81 z"
             style="fill:#ffffff;fill-opacity:1;fill-rule:evenodd;stroke:none"
             id="path358" />
          <path
             d="m 2977.46,383.309 c 0.67,15.781 32.42,16.32 32.85,0 v -33.481 h -32.85 z"
             style="fill:#ffffff;fill-opacity:1;fill-rule:evenodd;stroke:none"
             id="path360" />
          <path
             d="m 3088.09,383.309 c 0.62,15.781 32.38,16.32 32.81,0 v -33.481 h -32.81 z"
             style="fill:#ffffff;fill-opacity:1;fill-rule:evenodd;stroke:none"
             id="path362" />
          <path
             d="m 2489.96,209.129 c 0.67,55.109 32.42,56.992 32.85,0 V 92.3281 h -32.85 z"
             style="fill:#ffffff;fill-opacity:1;fill-rule:evenodd;stroke:none"
             id="path364" />
          <path
             d="m 2581.91,209.129 c 0.67,55.109 32.39,56.992 32.82,0 V 92.3281 h -32.82 z"
             style="fill:#ffffff;fill-opacity:1;fill-rule:evenodd;stroke:none"
             id="path366" />
          <path
             d="m 2673.83,209.129 c 0.66,55.109 32.42,56.992 32.85,0 V 92.3281 h -32.85 z"
             style="fill:#ffffff;fill-opacity:1;fill-rule:evenodd;stroke:none"
             id="path368" />
          <path
             d="m 2765.78,209.129 c 0.67,55.109 32.42,56.992 32.85,0 V 92.3281 h -32.85 z"
             style="fill:#ffffff;fill-opacity:1;fill-rule:evenodd;stroke:none"
             id="path370" />
          <path
             d="m 2857.73,209.129 c 0.67,55.109 32.39,56.992 32.82,0 V 92.3281 h -32.82 z"
             style="fill:#ffffff;fill-opacity:1;fill-rule:evenodd;stroke:none"
             id="path372" />
          <path
             d="m 3014.34,613.34 c 0.35,14.219 16.21,14.73 16.44,0 v -30.149 h -16.44 z"
             style="fill:#ffffff;fill-opacity:1;fill-rule:evenodd;stroke:none"
             id="path374" />
          <path
             d="m 3040.98,613.34 c 0.31,14.219 16.21,14.73 16.4,0 v -30.149 h -16.4 z"
             style="fill:#ffffff;fill-opacity:1;fill-rule:evenodd;stroke:none"
             id="path376" />
          <path
             d="m 3067.62,613.34 c 0.31,14.219 16.21,14.73 16.4,0 v -30.149 h -16.4 z"
             style="fill:#ffffff;fill-opacity:1;fill-rule:evenodd;stroke:none"
             id="path378" />
          <path
             d="m 1447.19,684.672 -54.14,-253.473 2.38,-8.91 V 232.172 l -34.8,-34.801 6.52,-3.601 V 18.8516 h 536.44 V 186.941 l 1.49,1.789 -61.29,43.719 -22.62,19.141 -305.23,2.301 V 411.27 l 2.38,9.218 -4.77,1.172 -58.63,263.012 z"
             style="fill:#000000;fill-opacity:1;fill-rule:nonzero;stroke:none"
             id="path380" />
          <path
             d="m 1433.95,167.02 c -6.88,-0.321 -13.79,-13.641 -13.79,-39.219 V 52.6406 h 27.57 v 75.1604 c 0,26.719 -6.91,39.488 -13.78,39.219 z"
             style="fill:#ffffff;fill-opacity:1;fill-rule:nonzero;stroke:none"
             id="path382" />
          <path
             d="m 1481.13,167.02 c -6.83,-0.321 -13.75,-13.641 -13.75,-39.219 V 52.6406 h 27.54 v 75.1604 c 0,26.719 -6.91,39.488 -13.79,39.219 z"
             style="fill:#ffffff;fill-opacity:1;fill-rule:nonzero;stroke:none"
             id="path384" />
          <path
             d="m 1427.19,357.172 c -3.64,-0.082 -7.35,-3.242 -7.35,-9.293 v -17.777 h 14.69 v 17.777 c 0,6.32 -3.67,9.371 -7.34,9.293 z"
             style="fill:#ffffff;fill-opacity:1;fill-rule:nonzero;stroke:none"
             id="path386" />
          <path
             d="m 1485.2,357.172 c -3.64,-0.082 -7.35,-3.242 -7.35,-9.293 v -17.777 h 14.69 v 17.777 c 0,6.32 -3.67,9.371 -7.34,9.293 z"
             style="fill:#ffffff;fill-opacity:1;fill-rule:nonzero;stroke:none"
             id="path388" />
          <path
             d="m 1456.21,357.172 c -3.67,-0.082 -7.34,-3.242 -7.34,-9.293 v -17.777 h 14.65 v 17.777 c 0,6.32 -3.68,9.371 -7.31,9.293 z"
             style="fill:#ffffff;fill-opacity:1;fill-rule:nonzero;stroke:none"
             id="path390" />
          <path
             d="m 1843.05,171.469 c -3.64,-0.27 -7.35,-14.141 -7.35,-40.739 V 52.6406 h 14.69 V 130.73 c 0,27.77 -3.67,41.051 -7.34,40.739 z"
             style="fill:#ffffff;fill-opacity:1;fill-rule:nonzero;stroke:none"
             id="path392" />
          <path
             d="m 1879.57,171.469 c -3.63,-0.27 -7.34,-14.141 -7.34,-40.739 V 52.6406 h 14.68 V 130.73 c 0,27.77 -3.67,41.051 -7.34,40.739 z"
             style="fill:#ffffff;fill-opacity:1;fill-rule:nonzero;stroke:none"
             id="path394" />
          <path
             d="m 1540,208.578 c -5.59,-0.117 -11.25,-5.668 -11.25,-16.328 V 161 h 22.54 v 31.25 c 0,11.129 -5.66,16.449 -11.29,16.328 z"
             style="fill:#ffffff;fill-opacity:1;fill-rule:nonzero;stroke:none"
             id="path396" />
          <path
             d="m 1590.78,208.578 c -5.58,-0.117 -11.25,-5.668 -11.25,-16.328 V 161 h 22.54 v 31.25 c 0,11.129 -5.66,16.449 -11.29,16.328 z"
             style="fill:#ffffff;fill-opacity:1;fill-rule:nonzero;stroke:none"
             id="path398" />
          <path
             d="m 1641.56,208.578 c -5.58,-0.117 -11.25,-5.668 -11.25,-16.328 V 161 h 22.5 v 31.25 c 0,11.129 -5.62,16.449 -11.25,16.328 z"
             style="fill:#ffffff;fill-opacity:1;fill-rule:nonzero;stroke:none"
             id="path400" />
          <path
             d="m 1692.34,208.578 c -5.62,-0.117 -11.25,-5.668 -11.25,-16.328 V 161 h 22.5 v 31.25 c 0,11.129 -5.62,16.449 -11.25,16.328 z"
             style="fill:#ffffff;fill-opacity:1;fill-rule:nonzero;stroke:none"
             id="path402" />
          <path
             d="m 1743.13,208.578 c -5.63,-0.117 -11.25,-5.668 -11.25,-16.328 V 161 h 22.5 v 31.25 c 0,11.129 -5.63,16.449 -11.25,16.328 z"
             style="fill:#ffffff;fill-opacity:1;fill-rule:nonzero;stroke:none"
             id="path404" />
          <path
             d="m 1793.91,208.578 c -5.63,-0.117 -11.25,-5.668 -11.25,-16.328 V 161 h 22.5 v 31.25 c 0,11.129 -5.67,16.449 -11.25,16.328 z"
             style="fill:#ffffff;fill-opacity:1;fill-rule:nonzero;stroke:none"
             id="path406" />
          <path
             d="m 1427.19,309.828 c -3.64,-0.039 -7.35,-3.199 -7.35,-9.258 v -17.808 h 14.69 v 17.808 c 0,6.328 -3.67,9.34 -7.34,9.258 z"
             style="fill:#ffffff;fill-opacity:1;fill-rule:nonzero;stroke:none"
             id="path408" />
          <path
             d="m 1485.2,309.828 c -3.64,-0.039 -7.35,-3.199 -7.35,-9.258 v -17.808 h 14.69 v 17.808 c 0,6.328 -3.67,9.34 -7.34,9.258 z"
             style="fill:#ffffff;fill-opacity:1;fill-rule:nonzero;stroke:none"
             id="path410" />
          <path
             d="m 1456.21,309.828 c -3.67,-0.039 -7.34,-3.199 -7.34,-9.258 v -17.808 h 14.65 v 17.808 c 0,6.328 -3.68,9.34 -7.31,9.258 z"
             style="fill:#ffffff;fill-opacity:1;fill-rule:nonzero;stroke:none"
             id="path412" />
          <path
             d="m 1540,100.379 c -5.59,-0.117 -11.25,-5.6681 -11.25,-16.2892 v -31.289 h 22.54 v 31.289 c 0,11.129 -5.66,16.3982 -11.29,16.2892 z"
             style="fill:#ffffff;fill-opacity:1;fill-rule:nonzero;stroke:none"
             id="path414" />
          <path
             d="m 1590.78,100.379 c -5.58,-0.117 -11.25,-5.6681 -11.25,-16.2892 v -31.289 h 22.54 v 31.289 c 0,11.129 -5.66,16.3982 -11.29,16.2892 z"
             style="fill:#ffffff;fill-opacity:1;fill-rule:nonzero;stroke:none"
             id="path416" />
          <path
             d="m 1641.56,100.379 c -5.58,-0.117 -11.25,-5.6681 -11.25,-16.2892 v -31.289 h 22.5 v 31.289 c 0,11.129 -5.62,16.3982 -11.25,16.2892 z"
             style="fill:#ffffff;fill-opacity:1;fill-rule:nonzero;stroke:none"
             id="path418" />
          <path
             d="m 1692.34,100.379 c -5.62,-0.117 -11.25,-5.6681 -11.25,-16.2892 v -31.289 h 22.5 v 31.289 c 0,11.129 -5.62,16.3982 -11.25,16.2892 z"
             style="fill:#ffffff;fill-opacity:1;fill-rule:nonzero;stroke:none"
             id="path420" />
          <path
             d="m 1743.13,100.379 c -5.63,-0.117 -11.25,-5.6681 -11.25,-16.2892 v -31.289 h 22.5 v 31.289 c 0,11.129 -5.63,16.3982 -11.25,16.2892 z"
             style="fill:#ffffff;fill-opacity:1;fill-rule:nonzero;stroke:none"
             id="path422" />
          <path
             d="m 1793.91,100.379 c -5.63,-0.117 -11.25,-5.6681 -11.25,-16.2892 v -31.289 h 22.5 v 31.289 c 0,11.129 -5.67,16.3982 -11.25,16.2892 z"
             style="fill:#ffffff;fill-opacity:1;fill-rule:nonzero;stroke:none"
             id="path424" />
          <path
             d="m 1449.57,590.57 -33.05,-154.34 h 7.89 l 25.16,117.661 h 5.27 l 26.37,-117.661 h 8.13 l -34.5,154.34 z"
             style="fill:#ffffff;fill-opacity:1;fill-rule:nonzero;stroke:none"
             id="path426" />
          <path
             d="m 0,9.98047 h 5150.86 v 50.1211 H 0 Z"
             style="fill:#000000;fill-opacity:1;fill-rule:nonzero;stroke:none"
             id="path428" />
        </g>
      </g>
    </g>
  </g>
</svg>
